<?xml version="1.0" encoding="utf-8"?><!-- Generator: Adobe Illustrator 25.4.1, SVG Export Plug-In . SVG Version: 6.00 Build 0)  -->
<svg version="1.1" id="Calque_1" xmlns="http://www.w3.org/2000/svg"
    xmlns:xlink="http://www.w3.org/1999/xlink" x="0px" y="0px" viewBox="0 0 934.5 270.9"
    style="enable-background:new 0 0 934.5 270.9;" xml:space="preserve">
    <g>
	<g>
		<g>
			<g>
				<g>
					<linearGradient id="SVGID_1_" gradientUnits="userSpaceOnUse" x1="323.5771"
                        y1="12.6071" x2="323.5771" y2="199.2994">
						<stop offset="0" style="stop-color:#44C0FF" />
                        <stop offset="0.3101" style="stop-color:#41BFFF" />
                        <stop offset="0.5676" style="stop-color:#36BBFF" />
                        <stop offset="0.8054" style="stop-color:#25B6FF" />
                        <stop offset="0.9995" style="stop-color:#11AFFF" />
					</linearGradient>
                    <path
                        style="fill:url(#SVGID_1_);"
                        d="M325.2,71.7c-37.2,0-65.8,30.1-65.8,69.2c0,38.9,26.4,66.3,65.6,66.3c5.2,0,10-0.4,14.5-1.1
						c17.8-2.9,30.4-11.6,41.6-26.5c1.7-2.2,1.1-5.4-1.2-7l-14.4-9.8c-2.3-1.6-5.5-1.1-7.2,1.1c-4.8,6.3-10,10.7-17,13.1
						c-4,1.4-8.5,2.1-13.8,2.1c-17.6,0-28.9-12-32.1-28.5c-0.2-1.2,0.8-2.3,2-2.1c5.4,0.9,19.4,2.9,38.8,2.9c4.5,0,9-0.1,13.3-0.3
						c13.3-0.5,25.2-1.7,31.6-2.4c3-0.3,5.4-2.7,5.9-5.7c0.5-3.8,0.9-7.9,0.9-11.4c0-11.2-2.8-21.4-7.9-30.2
						C369.5,83.3,349.5,71.7,325.2,71.7z M350.1,124.2h-51.2c-1.2,0-2.1-1.2-1.7-2.3c4.1-13.3,13.1-22.8,28.9-22.8
						c13.7,0,24.2,8.8,25.7,23.1C352,123.3,351.2,124.2,350.1,124.2z" />

                    <linearGradient id="SVGID_00000152977017865875501740000000436077233835395767_"
                        gradientUnits="userSpaceOnUse" x1="853.0499" y1="13.0596" x2="853.0499"
                        y2="201.9521">
						<stop offset="0" style="stop-color:#44C0FF" />
                        <stop offset="0.3036" style="stop-color:#41BFFF" />
                        <stop offset="0.5649" style="stop-color:#36BBFF" />
                        <stop offset="0.8098" style="stop-color:#24B5FF" />
                        <stop offset="0.9995" style="stop-color:#11AFFF" />
					</linearGradient>
                    <path
                        style="fill:url(#SVGID_00000152977017865875501740000000436077233835395767_);"
                        d="M854.7,71.7
						c-37.2,0-65.8,30.1-65.8,69.2c0,38.9,26.4,66.3,65.6,66.3c26,0,42.1-9,56.1-27.6c1.7-2.2,1.1-5.4-1.2-7l-14.4-9.8
						c-2.3-1.6-5.5-1.1-7.2,1.1c-7.6,9.8-16,15.2-30.9,15.2c-17.6,0-28.9-12-32.1-28.5c-0.2-1.2,0.8-2.3,2-2.1
						c5.4,0.9,19.4,2.9,38.8,2.9c19.1,0,38.1-1.9,46.1-2.8c2.3-0.3,4.2-2,4.5-4.3c0.6-4.2,1.1-8.7,1.1-12.7
						C917.2,97.1,890.6,71.7,854.7,71.7z M879.6,124.2h-51.2c-1.2,0-2.1-1.2-1.7-2.3c4.1-13.3,13.1-22.8,28.9-22.8
						c13.7,0,24.2,8.8,25.7,23.1C881.5,123.3,880.7,124.2,879.6,124.2z" />

                    <linearGradient id="SVGID_00000062892409053993911840000009349738279785146807_"
                        gradientUnits="userSpaceOnUse" x1="740.8913" y1="12.1144" x2="740.8913"
                        y2="200.8657">
						<stop offset="0" style="stop-color:#44C0FF" />
                        <stop offset="0.3044" style="stop-color:#41BFFF" />
                        <stop offset="0.5652" style="stop-color:#36BBFF" />
                        <stop offset="0.8093" style="stop-color:#24B5FF" />
                        <stop offset="0.9995" style="stop-color:#11AFFF" />
					</linearGradient>
                    <path
                        style="fill:url(#SVGID_00000062892409053993911840000009349738279785146807_);"
                        d="M769,175.8c-1.1-2.6-4-4-6.7-3
						c-2.9,1.1-5.9,1.7-9.5,1.7c-7.4,0-10.4-4.7-11.3-12.3c-0.5-3.7-0.5-7.1-0.5-11.1V19.5h-7.2c-0.5,0-1,0.1-1.5,0.1
						c-0.9,0.1-1.7,0.2-2.6,0.3c-6.3,0.8-12.3,2.7-17.8,5.3c0,0,0,0-0.1,0c-3.6,1.8-5.9,5.5-5.9,9.6v119.9c0,7.6,0.5,15.3,2.5,21.7
						c4.2,15.1,15.6,25.6,32.5,27.5c1.9,0.2,3.9,0.3,5.9,0.3c7.9,0,17-1.6,24.7-4.7c3.5-1.4,5.1-5.4,3.7-8.8L769,175.8z" />

                    <linearGradient id="SVGID_00000070084268316925139770000012889906207981183884_"
                        gradientUnits="userSpaceOnUse" x1="619.2817" y1="12.8453" x2="619.2817"
                        y2="200.1968">
						<stop offset="0" style="stop-color:#44C0FF" />
                        <stop offset="0.3077" style="stop-color:#41BFFF" />
                        <stop offset="0.5665" style="stop-color:#36BBFF" />
                        <stop offset="0.8069" style="stop-color:#25B6FF" />
                        <stop offset="0.9995" style="stop-color:#11AFFF" />
					</linearGradient>

                    <path
                        style="fill:url(#SVGID_00000070084268316925139770000012889906207981183884_);"
                        d="M652.7,81.5c-9-6.2-19.7-9.7-31.6-9.7
						c-11,0-21.6,4.1-28.1,10.5v-2.1c0-3-2.4-5.4-5.4-5.4h-24.3c-3,0-5.4,2.4-5.4,5.4v185.8h7.2c0.5,0,1-0.1,1.5-0.1
						c0.9-0.1,1.7-0.2,2.6-0.3c6.3-0.8,12.3-2.7,17.8-5.3c0,0,0,0,0.1,0c3.4-1.7,5.6-5.1,5.9-8.9v-53.4c6.2,5,14.8,9.4,28.1,9.4
						c14.7,0,27.5-5.2,37.4-14c13.9-12.4,22.1-31.8,22.1-53.7C680.6,114.9,669.9,93.3,652.7,81.5z M610.7,177.7
						c-7,0-12.7-1.4-17.1-5.3c-0.4-0.3-0.6-0.8-0.6-1.3v-62.3c0-0.4,0.2-0.9,0.5-1.2c3.5-3.8,9.5-7.1,17.3-7.2
						c20.2-0.3,34.2,17.9,34.2,38.7C644.9,149.6,638.8,177.7,610.7,177.7z" />

                    <linearGradient id="SVGID_00000140703876827044664510000002990840222066591414_"
                        gradientUnits="userSpaceOnUse" x1="468.4117" y1="13.9129" x2="468.4117"
                        y2="199.86">
						<stop offset="0" style="stop-color:#44C0FF" />
                        <stop offset="0.307" style="stop-color:#41BFFF" />
                        <stop offset="0.5663" style="stop-color:#36BBFF" />
                        <stop offset="0.8074" style="stop-color:#25B6FF" />
                        <stop offset="0.9995" style="stop-color:#11AFFF" />
					</linearGradient>
                    <path
                        style="fill:url(#SVGID_00000140703876827044664510000002990840222066591414_);"
                        d="M470,71.7c-12.1,0-23.2,3.2-32.8,8.8
						c-20,11.7-33,34-33,60.5c0,20.3,7.2,37.4,19.6,49.2c11.4,10.8,27.2,17.1,46,17.1c26,0,42.1-9,56.1-27.6c1.7-2.2,1.1-5.4-1.2-7
						l-14.4-9.8c-2.3-1.6-5.5-1.1-7.2,1.1c-7.6,9.8-16,15.2-30.9,15.2c-17.2,0-28.4-11.5-31.9-27.4c0.3-1,0.5-2,0.8-3
						c0.3-0.1,0.6-0.2,1-0.2c5.4,0.9,19.4,2.9,38.8,2.9c18.2,0,36.4-1.7,44.9-2.7c3-0.3,5.4-2.7,5.9-5.7c0.5-3.8,0.9-7.9,0.9-11.4
						C532.6,97.1,506,71.7,470,71.7z M494.9,124.2h-50.3h-0.8c-1.2,0-2.1-1.2-1.7-2.3c0.7-2.2,1.5-4.4,2.5-6.4
						c4.8-9.9,13.2-16.4,26.4-16.4c13.7,0,24.2,8.8,25.7,23.1C496.8,123.3,496,124.2,494.9,124.2z" />
				</g>
			</g>
		</g>

        <linearGradient id="SVGID_00000098191802534098481980000014669522585743756943_"
            gradientUnits="userSpaceOnUse" x1="206.9751" y1="13.6427" x2="206.9751" y2="200.4545">
			<stop offset="0" style="stop-color:#44C0FF" />
            <stop offset="0.3047" style="stop-color:#41BFFF" />
            <stop offset="0.5654" style="stop-color:#36BBFF" />
            <stop offset="0.8089" style="stop-color:#25B6FF" />
            <stop offset="0.9995" style="stop-color:#11AFFF" />
		</linearGradient>
        <path style="fill:url(#SVGID_00000098191802534098481980000014669522585743756943_);" d="M245.5,193.7l-6.3-15c-1.1-2.6-4-4-6.7-3
			c-2.9,1.1-5.9,1.7-9.5,1.7c-1.7,0-3.1-0.3-4.4-0.7c-4.2-1.6-6.2-5.7-7-11.6c-0.5-3.7-0.5-7.1-0.5-11.1v-50.3h0.7h22.5
			c1.5,0,2.7-1.2,2.7-2.7V77.3c0-1.5-1.2-2.7-2.7-2.7h-20.1h-3V45.1c-9.8-0.5-20.5,1.4-29.1,5.8c-8,3.2-5.5,17-5.9,23.7h-0.7h-0.9
			h-4.2c-1.5,0-2.7,1.2-2.7,2.7V101c0,1.5,1.2,2.7,2.7,2.7h5.6v54c0,7.6,0.5,15.3,2.5,21.7c4.7,16.8,18.2,27.8,38.4,27.8
			c3.1,0,6.4-0.3,9.7-0.8c5.1-0.8,10.3-2.1,14.9-3.9C245.2,201.1,246.9,197.2,245.5,193.7z" />

        <linearGradient id="SVGID_00000133500405975558620240000010686311387751865987_"
            gradientUnits="userSpaceOnUse" x1="78.8231" y1="13.944" x2="78.8231" y2="200.0742">
			<stop offset="0" style="stop-color:#44C0FF" />
            <stop offset="0.3061" style="stop-color:#41BFFF" />
            <stop offset="0.5659" style="stop-color:#36BBFF" />
            <stop offset="0.8079" style="stop-color:#25B6FF" />
            <stop offset="0.9995" style="stop-color:#11AFFF" />
		</linearGradient>
        <path style="fill:url(#SVGID_00000133500405975558620240000010686311387751865987_);" d="M116.6,10.6C107.4,7.4,96.3,5,83.1,5
			C51.1,5,20,22.4,20,59c0,43.3,42.6,53.8,53.2,57.3c19.2,7,36.9,13.4,37.2,29.6c9.6-7.3,15.8-18.9,15.8-31.9c0-6.1-1.4-11.8-3.8-17
			c-1-2.1-2.6-3.8-4.7-4.8c-8.2-4.1-17-7.3-25.2-10.1c-26.9-8.7-32.8-14.6-33.1-24.3c0-12.7,11.9-19.3,25.1-19.3
			c19.2,0,35.9,13.9,40,17.4c0,0,10.5-11.1,13.1-24.6c0.1-0.4,0.1-0.7,0.1-1.1C138,21.6,125.2,13.6,116.6,10.6z" />
	</g>
        <g>
		
			<linearGradient id="SVGID_00000088845779110037598030000008714904313929999524_"
                gradientUnits="userSpaceOnUse" x1="17.2473" y1="157.4344" x2="151.8062"
                y2="157.4344">
			<stop offset="1.066743e-03" style="stop-color:#FF9100" />
                <stop offset="0.5424" style="stop-color:#FFB600" />
                <stop offset="0.9995" style="stop-color:#FFBE0B" />
		</linearGradient>
            <path style="fill:url(#SVGID_00000088845779110037598030000008714904313929999524_);" d="M81.5,166.1c-16.6,0-29.2-6.2-37.2-11.9
			c-5.8-4.1-13.8-2.2-17.3,4l-8.3,14.6c-2.6,4.6-1.6,10.5,2.5,13.8c9.4,7.7,29.2,19.6,62.3,19.6c42.5,0,68.3-30.1,68.3-59.9
			c0-15.9-5.8-28.2-14.3-37.9C141.6,138.5,117.6,166.1,81.5,166.1z" />

            <linearGradient id="SVGID_00000085212164990245530800000007907896341434947756_"
                gradientUnits="userSpaceOnUse" x1="62.4159" y1="225.8508" x2="105.6933"
                y2="225.8508">
			<stop offset="1.066743e-03" style="stop-color:#FF9100" />
                <stop offset="0.5424" style="stop-color:#FFB600" />
                <stop offset="0.9995" style="stop-color:#FFBE0B" />
		</linearGradient>
            <path style="fill:url(#SVGID_00000085212164990245530800000007907896341434947756_);" d="M103.5,216c-6.2,1.3-12.9,2.1-20,2.1
			c-6.8,0-13.2-0.5-19-1.3c-1.3-0.2-2.3,1-2,2.2c2.4,9.6,11.1,16.8,21.5,16.8c10.7,0,19.6-7.6,21.7-17.6
			C105.9,216.8,104.8,215.7,103.5,216z" />
	</g>
</g>
</svg>
