<svg width="22" height="36" viewBox="0 0 22 36" fill="none" xmlns="http://www.w3.org/2000/svg">
<path d="M15.9848 0.890126C14.5746 0.388737 12.8198 0.0126953 10.8142 0.0126953C5.80032 0.0126953 0.943115 2.739 0.943115 8.41096C0.943115 15.1484 7.58652 16.7779 9.21603 17.3419C12.2244 18.4387 14.9507 19.4415 15.0133 21.9798C16.5175 20.8203 17.4889 19.0341 17.4889 17.0286C17.4889 16.0885 17.2696 15.1797 16.8935 14.3649C16.7369 14.0516 16.4862 13.7695 16.1728 13.6129C14.888 12.9548 13.5092 12.4847 12.2244 12.046C8.02523 10.6672 7.11646 9.75844 7.05379 8.25427C7.05379 6.28005 8.90266 5.24594 10.9709 5.24594C13.9792 5.24594 16.5488 7.40818 17.1756 7.97224C17.1756 7.97224 18.8364 6.24872 19.2125 4.11782V3.96113C19.3065 2.61365 17.3009 1.36018 15.9848 0.890126Z" fill="url(#paint0_linear_285_2317)"/>
<path d="M10.5008 25.1135C7.89983 25.1135 5.92561 24.142 4.70348 23.2646C3.79471 22.6379 2.54124 22.9199 2.00852 23.8913L0.723707 26.1789C0.316329 26.8997 0.473013 27.8084 1.13109 28.3412C2.60391 29.5633 5.67492 31.4122 10.8455 31.4122C17.4576 31.4122 21.5 26.7117 21.5 22.0738C21.5 19.5982 20.5912 17.6553 19.2751 16.1825C19.8705 20.8203 16.1727 25.1135 10.5008 25.1135Z" fill="url(#paint1_linear_285_2317)"/>
<path d="M13.9479 32.885C12.9765 33.1044 11.9424 33.1984 10.8143 33.1984C9.7488 33.1984 8.74603 33.1357 7.83726 33.0104C7.64924 32.979 7.46122 33.1671 7.52389 33.3551C7.89993 34.8593 9.24741 35.9874 10.8769 35.9874C12.5378 35.9874 13.9479 34.7966 14.2613 33.2297C14.324 33.0417 14.136 32.8537 13.9479 32.885Z" fill="url(#paint2_linear_285_2317)"/>
<defs>
<linearGradient id="paint0_linear_285_2317" x1="0.473063" y1="0.420074" x2="0.473063" y2="18.6926" gradientUnits="userSpaceOnUse">
<stop stop-color="#44C0FF"/>
<stop offset="1" stop-color="#11AFFF"/>
</linearGradient>
<linearGradient id="paint1_linear_285_2317" x1="0.5" y1="16.1825" x2="21.5" y2="16.1825" gradientUnits="userSpaceOnUse">
<stop stop-color="#FF9100"/>
<stop offset="0.5" stop-color="#FFB600"/>
<stop offset="1" stop-color="#FFBE0B"/>
</linearGradient>
<linearGradient id="paint2_linear_285_2317" x1="7.5116" y1="32.8816" x2="14.2736" y2="32.8816" gradientUnits="userSpaceOnUse">
<stop stop-color="#FF9100"/>
<stop offset="0.5" stop-color="#FFB600"/>
<stop offset="1" stop-color="#FFBE0B"/>
</linearGradient>
</defs>
</svg>
